<svg xmlns="http://www.w3.org/2000/svg" id="export" class="canvas" preserveAspectRatio="xMidYMid meet" style="" width="118" height="298"><rect id="background" fill="#fff" pointer-events="all" width="118" height="298"/><g id="origin" transform="translate(5.331674957275391, 5.331674957275391) scale(1)"><g id="clusters" class="clusters"/><g id="edge-paths" class="edge-paths" style="pointer-events: none;"><defs><marker id="arrowhead" viewBox="0 0 10 10" refX="9" refY="5" markerUnits="strokeWidth" markerWidth="8" markerHeight="6" orient="auto" style="fill: rgb(0, 0, 0);"><path d="M 0 0 L 10 5 L 0 10 L 4 5 z" style="stroke-width: 1px;"/></marker><marker id="arrowhead-select" viewBox="0 0 10 10" refX="9" refY="5" markerUnits="strokeWidth" markerWidth="8" markerHeight="6" orient="auto" style="fill: rgba(220, 0, 0, 0.9);"><path d="M 0 0 L 10 5 L 0 10 L 4 5 z" style="stroke-width: 1px;"/></marker><marker id="arrowhead-hover" viewBox="0 0 10 10" refX="9" refY="5" markerUnits="strokeWidth" markerWidth="8" markerHeight="6" orient="auto" style="fill: rgba(220, 0, 0, 0.9);"><path d="M 0 0 L 10 5 L 0 10 L 4 5 z" style="stroke-width: 1px;"/></marker></defs></g><g id="edge-labels" class="edge-labels"/><g id="nodes" class="nodes"><g id="node-name-conv1" class="node graph-node" style="" transform="translate(2.425872802734375,0)"><g class="node-item node-item-type" transform="translate(0,0)"><path d="M5,0h91.78175354003906a5,5 0 0 1 5,5v17.651999473571777a0,0 0 0 1 0,0h-101.78175354003906a0,0 0 0 1 0,0v-17.651999473571777a5,5 0 0 1 5,-5z" style="stroke: rgb(0, 0, 0); fill: rgb(0, 0, 0); stroke-width: 0px;"/><text x="6" y="15.880000114440918" style="font-family: -apple-system, BlinkMacSystemFont, &quot;Segoe WPC&quot;, &quot;Segoe UI&quot;, &quot;Ubuntu&quot;, &quot;Droid Sans&quot;, sans-serif, &quot;PingFang SC&quot;; font-size: 11px; text-rendering: geometricprecision; user-select: none; fill: rgb(255, 255, 255);">conv1</text><title>Weights</title></g><g class="node-argument-list" transform="translate(0,22.651999473571777)"><path d="M0,0h101.78175354003906a0,0 0 0 1 0,0v29.1200008392334a5,5 0 0 1 -5,5h-91.78175354003906a5,5 0 0 1 -5,-5v-29.1200008392334a0,0 0 0 1 0,0z" style="stroke: rgb(0, 0, 0); fill: rgb(255, 255, 255); stroke-width: 0px;"/><g class="node-argument"><rect rx="3" ry="3" x="3" y="3" width="95.78175354003906" height="14.0600004196167" style="fill: transparent;"/><text xml:space="preserve" x="6" y="13.720000267028809" style="font-family: -apple-system, BlinkMacSystemFont, &quot;Segoe WPC&quot;, &quot;Segoe UI&quot;, &quot;Ubuntu&quot;, &quot;Droid Sans&quot;, sans-serif, &quot;PingFang SC&quot;; font-size: 9px; font-weight: normal; text-rendering: geometricprecision; user-select: none;"><title>float32[16,1,3,3]</title><tspan style="font-weight: bold;">weight</tspan><tspan>〈16×1×3×3〉</tspan></text></g><g class="node-argument"><rect rx="3" ry="3" x="3" y="17.0600004196167" width="95.78175354003906" height="14.0600004196167" style="fill: transparent;"/><text xml:space="preserve" x="6" y="27.780000686645508" style="font-family: -apple-system, BlinkMacSystemFont, &quot;Segoe WPC&quot;, &quot;Segoe UI&quot;, &quot;Ubuntu&quot;, &quot;Droid Sans&quot;, sans-serif, &quot;PingFang SC&quot;; font-size: 9px; font-weight: normal; text-rendering: geometricprecision; user-select: none;"><title>float32[16]</title><tspan style="font-weight: bold;">bias</tspan><tspan>〈16〉</tspan></text></g><line class="node" x1="0" x2="101.78175354003906" y1="0" y2="0" style="stroke: rgb(51, 51, 51); fill: none; stroke-width: 1px;"/></g><path class="node node-border" d="M5,0h91.78175354003906a5,5 0 0 1 5,5v46.772000312805176a5,5 0 0 1 -5,5h-91.78175354003906a5,5 0 0 1 -5,-5v-46.772000312805176a5,5 0 0 1 5,-5z" style="stroke: rgb(51, 51, 51); fill: none; stroke-width: 1px;"/></g><g id="node-name-conv2" class="node graph-node" style="" transform="translate(0,76.77200031280518)"><g class="node-item node-item-type" transform="translate(0,0)"><path d="M5,0h96.63349914550781a5,5 0 0 1 5,5v17.651999473571777a0,0 0 0 1 0,0h-106.63349914550781a0,0 0 0 1 0,0v-17.651999473571777a5,5 0 0 1 5,-5z" style="stroke: rgb(0, 0, 0); fill: rgb(0, 0, 0); stroke-width: 0px;"/><text x="6" y="15.880000114440918" style="font-family: -apple-system, BlinkMacSystemFont, &quot;Segoe WPC&quot;, &quot;Segoe UI&quot;, &quot;Ubuntu&quot;, &quot;Droid Sans&quot;, sans-serif, &quot;PingFang SC&quot;; font-size: 11px; text-rendering: geometricprecision; user-select: none; fill: rgb(255, 255, 255);">conv2</text><title>Weights</title></g><g class="node-argument-list" transform="translate(0,22.651999473571777)"><path d="M0,0h106.63349914550781a0,0 0 0 1 0,0v29.1200008392334a5,5 0 0 1 -5,5h-96.63349914550781a5,5 0 0 1 -5,-5v-29.1200008392334a0,0 0 0 1 0,0z" style="stroke: rgb(0, 0, 0); fill: rgb(255, 255, 255); stroke-width: 0px;"/><g class="node-argument"><rect rx="3" ry="3" x="3" y="3" width="100.63349914550781" height="14.0600004196167" style="fill: transparent;"/><text xml:space="preserve" x="6" y="13.720000267028809" style="font-family: -apple-system, BlinkMacSystemFont, &quot;Segoe WPC&quot;, &quot;Segoe UI&quot;, &quot;Ubuntu&quot;, &quot;Droid Sans&quot;, sans-serif, &quot;PingFang SC&quot;; font-size: 9px; font-weight: normal; text-rendering: geometricprecision; user-select: none;"><title>float32[32,16,3,3]</title><tspan style="font-weight: bold;">weight</tspan><tspan>〈32×16×3×3〉</tspan></text></g><g class="node-argument"><rect rx="3" ry="3" x="3" y="17.0600004196167" width="100.63349914550781" height="14.0600004196167" style="fill: transparent;"/><text xml:space="preserve" x="6" y="27.780000686645508" style="font-family: -apple-system, BlinkMacSystemFont, &quot;Segoe WPC&quot;, &quot;Segoe UI&quot;, &quot;Ubuntu&quot;, &quot;Droid Sans&quot;, sans-serif, &quot;PingFang SC&quot;; font-size: 9px; font-weight: normal; text-rendering: geometricprecision; user-select: none;"><title>float32[32]</title><tspan style="font-weight: bold;">bias</tspan><tspan>〈32〉</tspan></text></g><line class="node" x1="0" x2="106.63349914550781" y1="0" y2="0" style="stroke: rgb(51, 51, 51); fill: none; stroke-width: 1px;"/></g><path class="node node-border" d="M5,0h96.63349914550781a5,5 0 0 1 5,5v46.772000312805176a5,5 0 0 1 -5,5h-96.63349914550781a5,5 0 0 1 -5,-5v-46.772000312805176a5,5 0 0 1 5,-5z" style="stroke: rgb(51, 51, 51); fill: none; stroke-width: 1px;"/></g><g id="node-name-fc1" class="node graph-node" style="" transform="translate(6.156745910644531,153.54400062561035)"><g class="node-item node-item-type" transform="translate(0,0)"><path d="M5,0h84.32000732421875a5,5 0 0 1 5,5v17.651999473571777a0,0 0 0 1 0,0h-94.32000732421875a0,0 0 0 1 0,0v-17.651999473571777a5,5 0 0 1 5,-5z" style="stroke: rgb(0, 0, 0); fill: rgb(0, 0, 0); stroke-width: 0px;"/><text x="6" y="15.880000114440918" style="font-family: -apple-system, BlinkMacSystemFont, &quot;Segoe WPC&quot;, &quot;Segoe UI&quot;, &quot;Ubuntu&quot;, &quot;Droid Sans&quot;, sans-serif, &quot;PingFang SC&quot;; font-size: 11px; text-rendering: geometricprecision; user-select: none; fill: rgb(255, 255, 255);">fc1</text><title>Weights</title></g><g class="node-argument-list" transform="translate(0,22.651999473571777)"><path d="M0,0h94.32000732421875a0,0 0 0 1 0,0v29.1200008392334a5,5 0 0 1 -5,5h-84.32000732421875a5,5 0 0 1 -5,-5v-29.1200008392334a0,0 0 0 1 0,0z" style="stroke: rgb(0, 0, 0); fill: rgb(255, 255, 255); stroke-width: 0px;"/><g class="node-argument"><rect rx="3" ry="3" x="3" y="3" width="88.32000732421875" height="14.0600004196167" style="fill: transparent;"/><text xml:space="preserve" x="6" y="13.720000267028809" style="font-family: -apple-system, BlinkMacSystemFont, &quot;Segoe WPC&quot;, &quot;Segoe UI&quot;, &quot;Ubuntu&quot;, &quot;Droid Sans&quot;, sans-serif, &quot;PingFang SC&quot;; font-size: 9px; font-weight: normal; text-rendering: geometricprecision; user-select: none;"><title>float32[128,800]</title><tspan style="font-weight: bold;">weight</tspan><tspan>〈128×800〉</tspan></text></g><g class="node-argument"><rect rx="3" ry="3" x="3" y="17.0600004196167" width="88.32000732421875" height="14.0600004196167" style="fill: transparent;"/><text xml:space="preserve" x="6" y="27.780000686645508" style="font-family: -apple-system, BlinkMacSystemFont, &quot;Segoe WPC&quot;, &quot;Segoe UI&quot;, &quot;Ubuntu&quot;, &quot;Droid Sans&quot;, sans-serif, &quot;PingFang SC&quot;; font-size: 9px; font-weight: normal; text-rendering: geometricprecision; user-select: none;"><title>float32[128]</title><tspan style="font-weight: bold;">bias</tspan><tspan>〈128〉</tspan></text></g><line class="node" x1="0" x2="94.32000732421875" y1="0" y2="0" style="stroke: rgb(51, 51, 51); fill: none; stroke-width: 1px;"/></g><path class="node node-border" d="M5,0h84.32000732421875a5,5 0 0 1 5,5v46.772000312805176a5,5 0 0 1 -5,5h-84.32000732421875a5,5 0 0 1 -5,-5v-46.772000312805176a5,5 0 0 1 5,-5z" style="stroke: rgb(51, 51, 51); fill: none; stroke-width: 1px;"/></g><g id="node-name-fc2" class="node graph-node" style="" transform="translate(8.582622528076172,230.31600093841553)"><g class="node-item node-item-type" transform="translate(0,0)"><path d="M5,0h79.46825408935547a5,5 0 0 1 5,5v17.651999473571777a0,0 0 0 1 0,0h-89.46825408935547a0,0 0 0 1 0,0v-17.651999473571777a5,5 0 0 1 5,-5z" style="stroke: rgb(0, 0, 0); fill: rgb(0, 0, 0); stroke-width: 0px;"/><text x="6" y="15.880000114440918" style="font-family: -apple-system, BlinkMacSystemFont, &quot;Segoe WPC&quot;, &quot;Segoe UI&quot;, &quot;Ubuntu&quot;, &quot;Droid Sans&quot;, sans-serif, &quot;PingFang SC&quot;; font-size: 11px; text-rendering: geometricprecision; user-select: none; fill: rgb(255, 255, 255);">fc2</text><title>Weights</title></g><g class="node-argument-list" transform="translate(0,22.651999473571777)"><path d="M0,0h89.46825408935547a0,0 0 0 1 0,0v29.1200008392334a5,5 0 0 1 -5,5h-79.46825408935547a5,5 0 0 1 -5,-5v-29.1200008392334a0,0 0 0 1 0,0z" style="stroke: rgb(0, 0, 0); fill: rgb(255, 255, 255); stroke-width: 0px;"/><g class="node-argument"><rect rx="3" ry="3" x="3" y="3" width="83.46825408935547" height="14.0600004196167" style="fill: transparent;"/><text xml:space="preserve" x="6" y="13.720000267028809" style="font-family: -apple-system, BlinkMacSystemFont, &quot;Segoe WPC&quot;, &quot;Segoe UI&quot;, &quot;Ubuntu&quot;, &quot;Droid Sans&quot;, sans-serif, &quot;PingFang SC&quot;; font-size: 9px; font-weight: normal; text-rendering: geometricprecision; user-select: none;"><title>float32[10,128]</title><tspan style="font-weight: bold;">weight</tspan><tspan>〈10×128〉</tspan></text></g><g class="node-argument"><rect rx="3" ry="3" x="3" y="17.0600004196167" width="83.46825408935547" height="14.0600004196167" style="fill: transparent;"/><text xml:space="preserve" x="6" y="27.780000686645508" style="font-family: -apple-system, BlinkMacSystemFont, &quot;Segoe WPC&quot;, &quot;Segoe UI&quot;, &quot;Ubuntu&quot;, &quot;Droid Sans&quot;, sans-serif, &quot;PingFang SC&quot;; font-size: 9px; font-weight: normal; text-rendering: geometricprecision; user-select: none;"><title>float32[10]</title><tspan style="font-weight: bold;">bias</tspan><tspan>〈10〉</tspan></text></g><line class="node" x1="0" x2="89.46825408935547" y1="0" y2="0" style="stroke: rgb(51, 51, 51); fill: none; stroke-width: 1px;"/></g><path class="node node-border" d="M5,0h79.46825408935547a5,5 0 0 1 5,5v46.772000312805176a5,5 0 0 1 -5,5h-79.46825408935547a5,5 0 0 1 -5,-5v-46.772000312805176a5,5 0 0 1 5,-5z" style="stroke: rgb(51, 51, 51); fill: none; stroke-width: 1px;"/></g></g></g></svg>